<?xml version="1.0" encoding="UTF-8" standalone="no"?>
<svg
   xmlns:dc="http://purl.org/dc/elements/1.1/"
   xmlns:cc="http://creativecommons.org/ns#"
   xmlns:rdf="http://www.w3.org/1999/02/22-rdf-syntax-ns#"
   xmlns:svg="http://www.w3.org/2000/svg"
   xmlns="http://www.w3.org/2000/svg"
   xmlns:xlink="http://www.w3.org/1999/xlink"
   style="enable-background:new"
   id="svg8"
   version="1.1"
   viewBox="2.7755576e-17 0 35.201118 35.201118"
   height="35.201118mm"
   width="35.201118mm">
  <defs
     id="defs2">
    <symbol
       id="ic_file_download_24px"
       viewBox="0 0 24 24">
      <path
         id="path12566"
         d="M 5.0270833,2.38125 H 3.96875 v -1.5875 h -1.5875 v 1.5875 H 1.3229167 L 3.175,4.2333333 Z M 1.3229167,4.7625 V 5.2916667 H 5.0270833 V 4.7625 Z"
         style="stroke-width:0.26458332" />
    </symbol>
    <symbol
       id="ic_folder_24px"
       viewBox="0 0 24 24">
      <path
         id="path12572"
         d="m 2.6458333,1.0583333 h -1.5875 c -0.29104163,0 -0.5265208,0.238125 -0.5265208,0.5291667 l -0.002646,3.175 c 0,0.2910417 0.238125,0.5291667 0.5291666,0.5291667 h 4.2333334 c 0.2910416,0 0.5291666,-0.238125 0.5291666,-0.5291667 V 2.1166667 C 5.8208333,1.825625 5.5827083,1.5875 5.2916667,1.5875 H 3.175 Z"
         style="stroke-width:0.26458332" />
    </symbol>
    <symbol
       id="ic_folder_open_24px"
       viewBox="0 0 24 24">
      <path
         id="path12575"
         d="M 5.2916667,1.5875 H 3.175 L 2.6458333,1.0583333 h -1.5875 c -0.29104163,0 -0.5265208,0.238125 -0.5265208,0.5291667 l -0.002646,3.175 c 0,0.2910417 0.238125,0.5291667 0.5291666,0.5291667 h 4.2333334 c 0.2910416,0 0.5291666,-0.238125 0.5291666,-0.5291667 V 2.1166667 C 5.8208333,1.825625 5.5827083,1.5875 5.2916667,1.5875 Z m 0,3.175 H 1.0583333 V 2.1166667 h 4.2333334 z"
         style="stroke-width:0.26458332" />
    </symbol>
    <symbol
       id="ic_sms_failed_24px"
       viewBox="0 0 24 24">
      <path
         id="path16302"
         d="M 5.2916667,0.52916667 H 1.0583333 c -0.29104163,0 -0.5265208,0.238125 -0.5265208,0.52916663 l -0.002646,4.7625 L 1.5875,4.7625 h 3.7041667 c 0.2910416,0 0.5291666,-0.238125 0.5291666,-0.5291667 v -3.175 c 0,-0.29104163 -0.238125,-0.52916663 -0.5291666,-0.52916663 z M 3.4395833,3.7041667 H 2.9104167 V 3.175 h 0.5291666 z m 0,-1.0583334 H 2.9104167 V 1.5875 h 0.5291666 z"
         style="stroke-width:0.26458332" />
    </symbol>
    <symbol
       id="ic_sync_24px"
       viewBox="0 0 24 24">
      <path
         id="path16305"
         d="M 3.175,1.0583333 V 0.26458333 L 2.1166667,1.3229167 3.175,2.38125 V 1.5875 c 0.8757708,0 1.5875,0.7117292 1.5875,1.5875 0,0.2672292 -0.066146,0.5212292 -0.1852083,0.7408333 L 4.9635833,4.302125 A 2.0981458,2.0981458 0 0 0 5.2916667,3.175 C 5.2916667,2.0055417 4.3444583,1.0583333 3.175,1.0583333 Z m 0,3.7041667 c -0.8757708,0 -1.5875,-0.7117292 -1.5875,-1.5875 0,-0.2672292 0.066146,-0.5212292 0.1852083,-0.7408333 L 1.3864167,2.047875 A 2.0981458,2.0981458 0 0 0 1.0583333,3.175 c 0,1.1694583 0.9472084,2.1166667 2.1166667,2.1166667 v 0.79375 L 4.2333333,5.0270833 3.175,3.96875 Z"
         style="stroke-width:0.26458332" />
    </symbol>
    <symbol
       id="ic_sync_problem_24px"
       viewBox="0 0 24 24">
      <path
         id="path16311"
         d="m 0.79375,3.175 c 0,0.5847292 0.2407708,1.11125 0.6244167,1.49225 L 0.79375,5.2916667 h 1.5875 v -1.5875 L 1.7885833,4.2968333 A 1.5882937,1.5882937 0 0 1 1.3229167,3.175 1.5848542,1.5848542 0 0 1 2.38125,1.6801042 V 1.127125 C 1.4684375,1.3626042 0.79375,2.1881042 0.79375,3.175 Z M 2.9104167,4.4979167 H 3.4395833 V 3.96875 H 2.9104167 Z M 5.55625,1.0583333 h -1.5875 v 1.5875 L 4.5614167,2.0531667 A 1.5882937,1.5882937 0 0 1 5.0270833,3.175 1.5848542,1.5848542 0 0 1 3.96875,4.6698958 V 5.222875 C 4.8815625,4.9873958 5.55625,4.1618958 5.55625,3.175 5.55625,2.5902708 5.3154792,2.06375 4.9318333,1.68275 Z m -2.6458333,2.38125 h 0.5291666 v -1.5875 H 2.9104167 Z"
         style="stroke-width:0.26458332" />
    </symbol>
    <symbol
       viewBox="0 0 1024 1024"
       id="icon-cog">
      <title
         id="title17893">cog</title>
      <path
         id="path17895"
         d="m 270.93333,152.13753 v -33.86666 l -40.47913,-16.8656 c -1.12607,-3.175003 -2.3114,-6.248403 -3.76767,-9.262537 L 243.0272,51.4604 219.075,27.516667 178.75673,44.1198 c -3.0734,-1.490133 -6.21453,-2.7432 -9.45726,-3.903133 L 152.13753,0 h -33.86666 l -16.7386,40.0812 c -3.369737,1.1938 -6.61247,2.446867 -9.821337,3.970867 L 51.4604,27.880733 27.516667,51.824467 43.925067,91.710933 C 42.333333,94.987533 41.0464,98.3234 39.818733,101.76933 L 0,118.7958 v 33.86667 l 39.8526,16.60313 c 1.227667,3.43747 2.548467,6.7818 4.131733,10.0584 l -16.1036,40.14893 23.943734,23.94374 39.988066,-16.46767 c 3.208867,1.524 6.485467,2.7432 9.855197,3.90313 l 17.12807,40.0812 h 33.86667 l 16.764,-40.2844 c 3.20886,-1.1938 6.38386,-2.44686 9.4234,-3.90313 l 40.6146,16.27293 23.94373,-23.94373 -16.67087,-40.4114 c 1.4224,-3.03953 2.58234,-6.1214 3.7084,-9.26253 z M 135.2042,186.26667 c -28.0416,0 -50.8,-22.7584 -50.8,-50.8 0,-28.0416 22.7584,-50.800003 50.8,-50.800003 28.0416,0 50.8,22.758403 50.8,50.800003 0,28.0416 -22.7584,50.8 -50.8,50.8 z"
         style="stroke-width:0.26458332" />
    </symbol>
    <symbol
       viewBox="0 0 1022 1024"
       id="icon-undo">
      <title
         id="title18083">undo</title>
      <path
         id="path18085"
         d="m 238.37265,31.493883 c -41.96662,-41.958154 -115.18159,-41.992021 -157.122813,0 L 33.86455,78.913037 V 33.873017 H 0 V 135.46667 h 101.59365 v -33.86455 l -42.525421,0.0254 46.166091,-46.166091 c 29.16608,-29.199946 80.03063,-29.199946 109.19618,0.03387 14.58701,14.587537 22.62135,33.96615 22.62135,54.598351 0,20.65761 -8.03434,40.04469 -22.62135,54.67456 l -25.53388,25.52541 23.94215,23.93368 25.53388,-25.46614 c 20.97035,-21.03861 32.54375,-48.96009 32.54375,-78.66751 0,-29.690476 -11.5734,-57.603489 -32.54375,-78.599764 z m -82.18064,239.439447 -23.94268,-23.97601 23.95961,-23.93368 23.94215,23.97601 z"
         style="stroke-width:0.26458332" />
    </symbol>
    <symbol
       viewBox="0 0 768 1024"
       id="icon-play">
      <title
         id="title18248">play</title>
      <path
         id="path18250"
         d="M 0,0 203.2,135.46667 0,270.93333 Z"
         style="stroke-width:0.26458332" />
    </symbol>
    <symbol
       viewBox="0 0 1024 1024"
       id="icon-stop">
      <title
         id="title18258">stop</title>
      <path
         id="path18260"
         d="M 0,0 H 270.93333 V 270.93333 H 0 Z"
         style="stroke-width:0.26458332" />
    </symbol>
    <filter
       id="filter86591"
       style="color-interpolation-filters:sRGB">
      <feBlend
         id="feBlend86593"
         in2="BackgroundImage"
         mode="luminosity" />
    </filter>
    <symbol
       id="ic_usb_24px"
       viewBox="0 0 24 24">
      <path
         id="path13661"
         d="m 3.96875,1.8520833 v 1.0583334 h 0.2645833 v 0.5291666 h -0.79375 V 1.3229167 H 3.96875 L 3.175,0.26458333 2.38125,1.3229167 h 0.5291667 v 2.1166666 h -0.79375 V 2.8918958 C 2.301875,2.794 2.4341667,2.6061458 2.4341667,2.38125 2.4341667,2.0611042 2.1722292,1.7991667 1.8520833,1.7991667 1.5319375,1.7991667 1.27,2.0611042 1.27,2.38125 1.27,2.6061458 1.4022917,2.794 1.5875,2.8918958 v 0.5476875 c 0,0.2936875 0.2354792,0.5291667 0.5291667,0.5291667 h 0.79375 v 0.8069792 c -0.1878542,0.097896 -0.3175,0.2910416 -0.3175,0.5159375 a 0.58208333,0.58208333 0 0 0 1.1641666,0 c 0,-0.2248959 -0.1296458,-0.4180417 -0.3175,-0.5159375 V 3.96875 h 0.79375 C 4.5270208,3.96875 4.7625,3.7332708 4.7625,3.4395833 V 2.9104167 H 5.0270833 V 1.8520833 Z"
         style="stroke-width:0.26458332" />
    </symbol>
    <symbol
       id="ic_dvr_24px"
       viewBox="0 0 24 24">
      <path
         id="path13507"
         d="m 5.55625,0.79375 h -4.7625 c -0.29104167,0 -0.52916667,0.238125 -0.52916667,0.5291667 v 3.175 c 0,0.2910416 0.238125,0.5291666 0.52916667,0.5291666 H 2.1166667 V 5.55625 H 4.2333333 V 5.0270833 H 5.55625 c 0.2910417,0 0.5265208,-0.238125 0.5265208,-0.5291666 l 0.00265,-3.175 C 6.0854167,1.031875 5.8472917,0.79375 5.55625,0.79375 Z m 0,3.7041667 h -4.7625 v -3.175 h 4.7625 z M 5.0270833,2.1166667 H 2.1166667 v 0.5291666 h 2.9104166 z m 0,1.0583333 H 2.1166667 v 0.5291667 h 2.9104166 z m -3.175,-1.0583333 H 1.3229167 v 0.5291666 h 0.5291666 z m 0,1.0583333 H 1.3229167 v 0.5291667 h 0.5291666 z"
         style="stroke-width:0.26458332" />
    </symbol>
    <symbol
       id="ic_file_upload_24px"
       viewBox="0 0 24 24">
      <path
         id="path12569"
         d="m 2.38125,4.2333333 h 1.5875 v -1.5875 H 5.0270833 L 3.175,0.79375 1.3229167,2.6458333 H 2.38125 Z M 1.3229167,4.7625 H 5.0270833 V 5.2916667 H 1.3229167 Z"
         style="stroke-width:0.26458332" />
    </symbol>
    <symbol
       id="ic_create_new_folder_24px"
       viewBox="0 0 24 24">
      <path
         id="path12563"
         d="M 5.2916667,1.5875 H 3.175 L 2.6458333,1.0583333 h -1.5875 c -0.29368747,0 -0.5265208,0.2354792 -0.5265208,0.5291667 l -0.002646,3.175 c 0,0.2936875 0.23547916,0.5291667 0.5291666,0.5291667 h 4.2333334 c 0.2936875,0 0.5291666,-0.2354792 0.5291666,-0.5291667 V 2.1166667 C 5.8208333,1.8229792 5.5853542,1.5875 5.2916667,1.5875 Z M 5.0270833,3.7041667 h -0.79375 v 0.79375 H 3.7041667 v -0.79375 h -0.79375 V 3.175 h 0.79375 V 2.38125 H 4.2333333 V 3.175 h 0.79375 z"
         style="stroke-width:0.26458332" />
    </symbol>
    <symbol
       id="instagram">
      <title
         id="title12913">instagram</title>
      <path
         id="path12915"
         d="m 2.1166667,0.52916667 c -0.8768292,0 -1.58750003,0.71093543 -1.58750003,1.58750003 0,0.8765645 0.71067083,1.5875 1.58750003,1.5875 0.8765645,0 1.5875,-0.7109355 1.5875,-1.5875 0,-0.8765646 -0.7109355,-1.58750003 -1.5875,-1.58750003 z m 0,0.52916663 c 0.14605,0 0.2645833,0.1185334 0.2645833,0.2645834 0,0.14605 -0.1185333,0.2645833 -0.2645833,0.2645833 -0.1463146,0 -0.2645834,-0.1185333 -0.2645834,-0.2645833 0,-0.14605 0.1182688,-0.2645834 0.2645834,-0.2645834 z M 2.6458333,3.175 H 1.5875 V 2.9104167 h 0.3307292 v -0.79375 H 1.6533812 V 1.8520833 h 0.661723 v 1.0583334 h 0.3307291 z"
         style="stroke-width:0.26458332" />
    </symbol>
    <symbol
       id="ic_security_24px"
       viewBox="0 0 24 24">
      <path
         id="path14885"
         d="M 3.175,0.26458333 0.79375,1.3229167 v 1.5875 c 0,1.4684375 1.016,2.841625 2.38125,3.175 1.36525,-0.333375 2.38125,-1.7065625 2.38125,-3.175 v -1.5875 z m 0,2.90777087 H 5.0270833 C 4.8868542,4.2624375 4.15925,5.2334583 3.175,5.5377292 V 3.175 H 1.3229167 V 1.666875 L 3.175,0.84402083 Z"
         style="stroke-width:0.26458332" />
    </symbol>
    <symbol
       id="ic_desktop_windows_24px"
       viewBox="0 0 24 24">
      <path
         id="path14789"
         d="m 5.55625,0.52916667 h -4.7625 c -0.29104167,0 -0.52916667,0.238125 -0.52916667,0.52916663 v 3.175 c 0,0.2910417 0.238125,0.5291667 0.52916667,0.5291667 H 2.6458333 V 5.2916667 H 2.1166667 V 5.8208333 H 4.2333333 V 5.2916667 H 3.7041667 V 4.7625 H 5.55625 c 0.2910417,0 0.5291667,-0.238125 0.5291667,-0.5291667 v -3.175 c 0,-0.29104163 -0.238125,-0.52916663 -0.5291667,-0.52916663 z m 0,3.70416663 h -4.7625 v -3.175 h 4.7625 z"
         style="stroke-width:0.26458332" />
    </symbol>
    <symbol
       id="ic_memory_24px"
       viewBox="0 0 24 24">
      <path
         id="path14858"
         d="m 3.96875,2.38125 h -1.5875 v 1.5875 h 1.5875 z M 3.4395833,3.4395833 H 2.9104167 V 2.9104167 H 3.4395833 Z M 5.55625,2.9104167 V 2.38125 H 5.0270833 V 1.8520833 c 0,-0.2910416 -0.238125,-0.5291666 -0.5291666,-0.5291666 H 3.96875 V 0.79375 H 3.4395833 V 1.3229167 H 2.9104167 V 0.79375 H 2.38125 V 1.3229167 H 1.8520833 c -0.2910416,0 -0.5291666,0.238125 -0.5291666,0.5291666 V 2.38125 H 0.79375 V 2.9104167 H 1.3229167 V 3.4395833 H 0.79375 V 3.96875 h 0.5291667 v 0.5291667 c 0,0.2910416 0.238125,0.5291666 0.5291666,0.5291666 H 2.38125 V 5.55625 H 2.9104167 V 5.0270833 H 3.4395833 V 5.55625 H 3.96875 V 5.0270833 h 0.5291667 c 0.2910416,0 0.5291666,-0.238125 0.5291666,-0.5291666 V 3.96875 H 5.55625 V 3.4395833 H 5.0270833 V 2.9104167 Z m -1.0583333,1.5875 H 1.8520833 V 1.8520833 h 2.6458334 z"
         style="stroke-width:0.26458332" />
    </symbol>
    <symbol
       id="ic_av_timer_24px"
       viewBox="0 0 24 24">
      <path
         id="path5892"
         d="m 2.9104167,4.4979167 c 0,0.1455208 0.1190625,0.2645833 0.2645833,0.2645833 0.1455208,0 0.2645833,-0.1190625 0.2645833,-0.2645833 0,-0.1455209 -0.1190625,-0.2645834 -0.2645833,-0.2645834 -0.1455208,0 -0.2645833,0.1190625 -0.2645833,0.2645834 z m 0,-3.7041667 v 1.0583333 h 0.5291666 v -0.508 c 0.8969375,0.1296459 1.5875,0.8969375 1.5875,1.8309167 0,1.0239375 -0.8281458,1.8520833 -1.8520833,1.8520833 -1.0239375,0 -1.8520833,-0.8281458 -1.8520833,-1.8520833 0,-0.4445 0.1561041,-0.8519583 0.4180416,-1.1694583 L 3.175,3.4395833 3.5480625,3.0665208 1.7488958,1.2673542 v 0.00529 C 1.1694583,1.7065625 0.79375,2.3944792 0.79375,3.175 c 0,1.3149792 1.063625,2.38125 2.38125,2.38125 a 2.38125,2.38125 0 0 0 0,-4.7625 z M 4.7625,3.175 c 0,-0.1455208 -0.1190625,-0.2645833 -0.2645833,-0.2645833 -0.1455209,0 -0.2645834,0.1190625 -0.2645834,0.2645833 0,0.1455208 0.1190625,0.2645833 0.2645834,0.2645833 C 4.6434375,3.4395833 4.7625,3.3205208 4.7625,3.175 Z m -3.175,0 c 0,0.1455208 0.1190625,0.2645833 0.2645833,0.2645833 0.1455209,0 0.2645834,-0.1190625 0.2645834,-0.2645833 0,-0.1455208 -0.1190625,-0.2645833 -0.2645834,-0.2645833 C 1.7065625,2.9104167 1.5875,3.0294792 1.5875,3.175 Z"
         style="stroke-width:1" />
    </symbol>
    <symbol
       id="ic_library_books_24px"
       viewBox="0 0 24 24">
      <path
         id="path5965"
         d="M 1.0583333,1.5875 H 0.52916667 v 3.7041667 c 0,0.2910416 0.238125,0.5291666 0.52916663,0.5291666 H 4.7625 V 5.2916667 H 1.0583333 Z M 5.2916667,0.52916667 h -3.175 c -0.2910417,0 -0.5291667,0.238125 -0.5291667,0.52916663 v 3.175 C 1.5875,4.524375 1.825625,4.7625 2.1166667,4.7625 h 3.175 c 0.2910416,0 0.5291666,-0.238125 0.5291666,-0.5291667 v -3.175 c 0,-0.29104163 -0.238125,-0.52916663 -0.5291666,-0.52916663 z M 5.0270833,2.9104167 H 2.38125 V 2.38125 H 5.0270833 Z M 3.96875,3.96875 H 2.38125 V 3.4395833 h 1.5875 z M 5.0270833,1.8520833 H 2.38125 V 1.3229167 h 2.6458333 z"
         style="stroke-width:1" />
    </symbol>
    <symbol
       id="ic_new_releases_24px"
       viewBox="0 0 24 24">
      <path
         id="path5989"
         d="M 6.0854167,3.175 5.4398333,2.4394583 5.5297917,1.4657917 4.5746458,1.2488333 4.0745833,0.40745833 3.175,0.79375 2.2754167,0.40745833 1.7753542,1.2488333 0.82020833,1.4631458 0.91016667,2.4368125 0.26458333,3.175 0.91016667,3.9105417 0.82020833,4.8868542 1.7753542,5.1038125 2.2754167,5.9451875 3.175,5.55625 4.0745833,5.9425417 4.5746458,5.1011667 5.5297917,4.8842083 5.4398333,3.9105417 Z M 3.4395833,4.4979167 H 2.9104167 V 3.96875 h 0.5291666 z m 0,-1.0583334 H 2.9104167 v -1.5875 h 0.5291666 z"
         style="stroke-width:1" />
    </symbol>
    <symbol
       id="ic_help_24px"
       viewBox="0 0 24 24">
      <path
         id="path10538"
         d="M 3.175,0.52916667 C 1.7145,0.52916667 0.52916667,1.7145 0.52916667,3.175 0.52916667,4.6355 1.7145,5.8208333 3.175,5.8208333 4.6355,5.8208333 5.8208333,4.6355 5.8208333,3.175 5.8208333,1.7145 4.6355,0.52916667 3.175,0.52916667 Z M 3.4395833,5.0270833 H 2.9104167 V 4.4979167 H 3.4395833 Z M 3.9872708,2.9765625 3.7491458,3.2199792 C 3.5586458,3.413125 3.4395833,3.571875 3.4395833,3.96875 H 2.9104167 V 3.8364583 c 0,-0.2910416 0.1190625,-0.555625 0.3095625,-0.7487708 l 0.3280833,-0.333375 c 0.097896,-0.09525 0.1561042,-0.2275417 0.1561042,-0.3730625 0,-0.2910417 -0.238125,-0.5291667 -0.5291667,-0.5291667 -0.2910417,0 -0.5291667,0.238125 -0.5291667,0.5291667 H 2.1166667 c 0,-0.5847292 0.4736041,-1.0583333 1.0583333,-1.0583333 0.5847292,0 1.0583333,0.4736041 1.0583333,1.0583333 0,0.2328333 -0.09525,0.4445 -0.2460625,0.5953125 z"
         style="stroke-width:1" />
    </symbol>
    <symbol
       id="ic_power_settings_new_24px"
       viewBox="0 0 24 24">
      <path
         id="path10696"
         d="M 3.4395833,0.79375 H 2.9104167 V 3.4395833 H 3.4395833 Z M 4.7175208,1.3678958 4.3418125,1.7436042 A 1.8309167,1.8309167 0 0 1 5.0270833,3.175 c 0,1.0239375 -0.8281458,1.8520833 -1.8520833,1.8520833 A 1.8507604,1.8507604 0 0 1 2.0055417,1.7409583 L 1.6324792,1.3678958 A 2.3632583,2.3632583 0 0 0 0.79375,3.175 a 2.38125,2.38125 0 0 0 4.7625,0 c 0,-0.7249583 -0.3254375,-1.3705417 -0.8387292,-1.8071042 z"
         style="stroke-width:1" />
    </symbol>
    <symbol
       viewBox="0 0 20 20"
       id="editor-unlink">
      <title
         id="title11893">editor-unlink</title>
      <path
         id="path11895"
         d="m 4.6937083,0.59795833 a 1.1432646,1.1432646 0 0 1 0,1.61395837 L 4.2888958,2.6140833 c -0.084667,0.087312 -0.1825625,0.1534584 -0.28575,0.2037292 L 3.4395833,2.6458333 3.8867292,2.2119167 4.0878125,2.0081875 4.2888958,1.8071042 c 0.22225,-0.22225 0.22225,-0.5820834 0,-0.8043334 a 0.5635625,0.5635625 0 0 0 -0.8043333,0 L 3.2808333,1.2038542 3.07975,1.4049375 2.6458333,1.8520833 2.4738542,1.285875 C 2.524125,1.1853333 2.5902708,1.0874375 2.6775833,1.0027708 L 3.07975,0.59795833 a 1.1432646,1.1432646 0 0 1 1.6139583,0 z m -4.16454163,0.46037497 2.11666663,1.5875 -1.5875,-2.11666663 z M 1.5875,0.52916667 2.6458333,2.6458333 2.1166667,0.52916667 Z M 0.52916667,1.5875 2.6458333,2.6458333 0.52916667,2.1166667 Z M 2.4765,3.6221458 2.6458333,3.4395833 2.841625,4.0613542 2.4765,4.429125 a 1.1432646,1.1432646 0 0 1 -1.61395833,0 1.1432646,1.1432646 0 0 1 0,-1.6139583 L 1.2303125,2.4500417 1.8520833,2.6458333 1.6695208,2.8151667 1.2673542,3.2199792 c -0.2248959,0.22225 -0.2248959,0.5820833 0,0.8043333 0.22225,0.2248958 0.5820833,0.2248958 0.8043333,0 z m 2.286,0.6111875 -2.1166667,-1.5875 1.5875,2.1166667 z M 3.7041667,4.7625 2.6458333,2.6458333 3.175,4.7625 Z M 4.7625,3.7041667 2.6458333,2.6458333 4.7625,3.175 Z"
         style="stroke-width:1" />
    </symbol>
  </defs>
  <metadata
     id="metadata5">
    <rdf:RDF>
      <cc:Work
         rdf:about="">
        <dc:format>image/svg+xml</dc:format>
        <dc:type
           rdf:resource="http://purl.org/dc/dcmitype/StillImage" />
        <dc:title></dc:title>
      </cc:Work>
    </rdf:RDF>
  </metadata>
  <g
     transform="translate(-146.40257,-239.85458)"
     style="opacity:1;filter:url(#filter86591)"
     id="layer1">
    <use
       transform="matrix(5.3044906,0,0,5.276005,38.283582,233.55975)"
       height="100%"
       width="100%"
       y="0"
       x="0"
       xlink:href="#ic_file_download_24px"
       style="fill:#333333;stroke:none;stroke-width:0.18902774;image-rendering:auto"
       id="use84204" />
    <use
       transform="translate(93.305149,19.086874)"
       height="100%"
       width="100%"
       y="0"
       x="0"
       xlink:href="#ic_folder_24px"
       style="fill:#333333;stroke:none"
       id="use84238" />
    <use
       transform="matrix(4.4089826,0,0,4.8284472,143.55991,235.15865)"
       height="100%"
       width="100%"
       y="0"
       x="0"
       xlink:href="#ic_folder_open_24px"
       style="fill:#333333;stroke:none;stroke-width:0.21673401"
       id="use84272" />
    <use
       transform="translate(92.411503,-24.773336)"
       height="100%"
       width="100%"
       y="0"
       x="0"
       xlink:href="#ic_sms_failed_24px"
       style="fill:#333333;stroke:none"
       id="use84702" />
    <use
       transform="matrix(4.2956254,0,0,4.0217035,97.783079,205.84688)"
       height="100%"
       width="100%"
       y="0"
       x="0"
       xlink:href="#ic_sync_24px"
       style="fill:#ffd42a;stroke:none;stroke-width:0.24059233"
       id="use84842" />
    <use
       transform="translate(3.5145949,132.01794)"
       height="100%"
       width="100%"
       y="0"
       x="0"
       xlink:href="#ic_sync_problem_24px"
       style="fill:#333333;stroke:none"
       id="use84888" />
    <use
       transform="matrix(3.6106841,0,0,3.6301586,187.20515,244.08064)"
       height="100%"
       width="100%"
       y="0"
       x="0"
       xlink:href="#icon-cog"
       style="fill:#333333;stroke:none;stroke-width:0.22191532"
       id="use86381" />
    <use
       transform="matrix(0.65519483,0,0,0.67897967,59.729921,159.32827)"
       height="100%"
       width="100%"
       y="0"
       x="0"
       xlink:href="#icon-undo"
       style="fill:#333333;stroke:none"
       id="use86419" />
    <use
       height="100%"
       width="100%"
       y="0"
       x="0"
       xlink:href="#icon-stop"
       style="fill:#ff5555;stroke:none;stroke-width:0.19688281"
       transform="matrix(3.621504,0,0,3.632601,29.749835,327.75261)"
       id="use86495" />
    <use
       height="100%"
       width="100%"
       y="0"
       x="0"
       xlink:href="#icon-play"
       style="fill:#8dd35f;stroke:none;stroke-width:0.14726886"
       transform="matrix(3.3466451,0,0,3.6200862,245.31022,219.9144)"
       id="use86520" />
    <use
       height="100%"
       width="100%"
       y="0"
       x="0"
       xlink:href="#ic_usb_24px"
       style="fill:#333333;stroke:none;stroke-width:0.26408848"
       transform="matrix(3.5197942,0,0,4.0736508,217.7911,163.4754)"
       id="use91583" />
    <use
       height="100%"
       width="100%"
       y="0"
       x="0"
       xlink:href="#ic_dvr_24px"
       style="fill:#333333;stroke:none;stroke-width:0.23579183"
       transform="matrix(3.9780154,0,0,4.5214317,179.50934,201.68727)"
       id="use91617" />
    <use
       height="100%"
       width="100%"
       y="0"
       x="0"
       xlink:href="#ic_file_upload_24px"
       style="fill:#333333;stroke:none;stroke-width:0.20300768"
       transform="matrix(4.6184624,0,0,5.2538495,100.73908,239.56764)"
       id="use179255" />
    <use
       height="100%"
       width="100%"
       y="0"
       x="0"
       xlink:href="#ic_create_new_folder_24px"
       style="fill:#333333;stroke:none"
       transform="translate(130.15018,143.17324)"
       id="use179277" />
    <use
       height="100%"
       width="100%"
       y="0"
       x="0"
       xlink:href="#instagram"
       style="fill:#333333;stroke:none;stroke-width:1.09023857"
       transform="matrix(10.530724,0,0,10.389345,46.053549,181.75421)"
       id="use179853" />
    <use
       height="100%"
       width="100%"
       y="0"
       x="0"
       xlink:href="#ic_security_24px"
       style="fill:#8dd35f;stroke:none;stroke-width:0.23345836"
       transform="matrix(3.9685461,0,0,3.9242572,234.81894,330.03413)"
       id="use182705" />
    <use
       height="100%"
       width="100%"
       y="0"
       x="0"
       xlink:href="#ic_desktop_windows_24px"
       style="fill:#333333;stroke:none"
       transform="matrix(0.76608464,0,0,0.82846206,8.7745439,202.39315)"
       id="use182775" />
    <use
       height="100%"
       width="100%"
       y="0"
       x="0"
       xlink:href="#ic_memory_24px"
       style="fill:#333333;stroke:none;stroke-width:0.20569631"
       transform="matrix(4.9061259,0,0,4.8173503,144.46313,163.52891)"
       id="use182809" />
    <use
       height="100%"
       width="100%"
       y="0"
       x="0"
       xlink:href="#ic_av_timer_24px"
       style="fill:#333333;stroke:none;stroke-width:0.21486862"
       transform="matrix(4.5806154,0,0,4.7285747,223.68253,269.93585)"
       id="use92618" />
    <use
       height="100%"
       width="100%"
       y="0"
       x="0"
       xlink:href="#ic_library_books_24px"
       style="fill:#333333;stroke:none;stroke-width:0.24973589"
       transform="matrix(3.6366349,0,0,4.4089827,63.218241,285.73646)"
       id="use92671" />
    <use
       height="100%"
       width="100%"
       y="0"
       x="0"
       xlink:href="#ic_help_24px"
       style="fill:#333333;stroke:none;stroke-width:0.22819228"
       transform="matrix(4.3557173,0,0,4.4089826,132.31996,285.11633)"
       id="use95437" />
    <use
       height="100%"
       width="100%"
       y="0"
       x="0"
       xlink:href="#ic_power_settings_new_24px"
       style="fill:#ff5555;stroke:none;stroke-width:0.20758691"
       transform="matrix(4.7877582,0,0,4.8469423,175.16318,309.32846)"
       id="use95490" />
    <use
       height="100%"
       width="100%"
       y="0"
       x="0"
       xlink:href="#editor-unlink"
       style="fill:#ff5555;stroke:none;stroke-width:0.2458885"
       transform="matrix(3.9765259,0,0,4.1592949,91.198646,329.10544)"
       id="use96469" />
  </g>
</svg>
